<?xml version="1.0" encoding="UTF-8" standalone="no"?>
<!-- Created with Inkscape (http://www.inkscape.org/) -->

<svg
   xmlns:dc="http://purl.org/dc/elements/1.1/"
   xmlns:cc="http://creativecommons.org/ns#"
   xmlns:rdf="http://www.w3.org/1999/02/22-rdf-syntax-ns#"
   xmlns:svg="http://www.w3.org/2000/svg"
   xmlns="http://www.w3.org/2000/svg"
   xmlns:sodipodi="http://sodipodi.sourceforge.net/DTD/sodipodi-0.dtd"
   xmlns:inkscape="http://www.inkscape.org/namespaces/inkscape"
   width="210mm"
   height="210mm"
   viewBox="0 0 744.09449 744.09448"
   id="svg2"
   version="1.1"
   inkscape:version="0.91 r13725"
   sodipodi:docname="image3.svg"
   inkscape:export-filename="/home/giovanni/catkin_ws_map/src/my_robot/media/materials/textures/limage3.png"
   inkscape:export-xdpi="96.761902"
   inkscape:export-ydpi="96.761902">
  <defs
     id="defs4" />
  <sodipodi:namedview
     id="base"
     pagecolor="#ffffff"
     bordercolor="#666666"
     borderopacity="1.0"
     inkscape:pageopacity="0.0"
     inkscape:pageshadow="2"
     inkscape:zoom="0.49497475"
     inkscape:cx="-498.85778"
     inkscape:cy="623.91146"
     inkscape:document-units="px"
     inkscape:current-layer="layer1"
     showgrid="false"
     inkscape:snap-bbox="true"
     inkscape:bbox-paths="true"
     inkscape:bbox-nodes="true"
     inkscape:snap-bbox-edge-midpoints="true"
     inkscape:snap-bbox-midpoints="true"
     inkscape:object-paths="false"
     inkscape:snap-intersection-paths="false"
     inkscape:object-nodes="false"
     inkscape:snap-smooth-nodes="false"
     inkscape:snap-object-midpoints="false"
     inkscape:snap-midpoints="false"
     showguides="true"
     inkscape:guide-bbox="true"
     inkscape:snap-others="false"
     inkscape:snap-nodes="false"
     inkscape:window-width="1600"
     inkscape:window-height="1149"
     inkscape:window-x="0"
     inkscape:window-y="0"
     inkscape:window-maximized="1"
     inkscape:snap-global="false">
    <sodipodi:guide
       position="0,0"
       orientation="0,1"
       id="guide3353"
       inkscape:label=""
       inkscape:color="rgb(0,0,255)" />
    <sodipodi:guide
       position="0,744.09449"
       orientation="1,0"
       id="guide3355"
       inkscape:label=""
       inkscape:color="rgb(0,0,255)" />
    <sodipodi:guide
       position="0,744.09449"
       orientation="0,1"
       id="guide3357"
       inkscape:label=""
       inkscape:color="rgb(0,0,255)" />
    <sodipodi:guide
       position="744.0945,744.09449"
       orientation="1,0"
       id="guide3359"
       inkscape:label=""
       inkscape:color="rgb(0,0,255)" />
  </sodipodi:namedview>
  <metadata
     id="metadata7">
    <rdf:RDF>
      <cc:Work
         rdf:about="">
        <dc:format>image/svg+xml</dc:format>
        <dc:type
           rdf:resource="http://purl.org/dc/dcmitype/StillImage" />
        <dc:title></dc:title>
      </cc:Work>
    </rdf:RDF>
  </metadata>
  <g
     inkscape:label="Layer 1"
     inkscape:groupmode="layer"
     id="layer1"
     transform="translate(0,-308.26772)">
    <rect
       style="fill:#b3b3b3;fill-rule:evenodd;stroke:none;stroke-width:1.6511476px;stroke-linecap:butt;stroke-linejoin:miter;stroke-opacity:1"
       id="rect3361"
       width="742.44336"
       height="742.44336"
       x="0.8255738"
       y="309.09332" />
    <ellipse
       style="fill:#ffffff;stroke:none"
       id="path4182"
       cx="372.46002"
       cy="680.72778"
       rx="329.20804"
       ry="329.20801" />
    <g
       id="g4153"
       transform="matrix(0.69698202,0,0,0.69698202,964.93154,56.338945)">
      <path
         inkscape:connector-curvature="0"
         id="path4556"
         d="m -914.4785,919.38301 0,62.59961 115.73633,0 0,-62.59961 z"
         style="color:#000000;font-style:normal;font-variant:normal;font-weight:normal;font-stretch:normal;font-size:medium;line-height:normal;font-family:sans-serif;text-indent:0;text-align:start;text-decoration:none;text-decoration-line:none;text-decoration-style:solid;text-decoration-color:#000000;letter-spacing:normal;word-spacing:normal;text-transform:none;direction:ltr;writing-mode:lr-tb;baseline-shift:baseline;text-anchor:start;white-space:normal;clip-rule:nonzero;display:inline;overflow:visible;visibility:visible;opacity:1;isolation:auto;mix-blend-mode:normal;color-interpolation:sRGB;color-interpolation-filters:linearRGB;solid-color:#000000;solid-opacity:1;fill:#555753;fill-opacity:1;fill-rule:nonzero;stroke:none;stroke-width:62.59999466;stroke-linecap:butt;stroke-linejoin:miter;stroke-miterlimit:4;stroke-dasharray:none;stroke-dashoffset:0;stroke-opacity:1;color-rendering:auto;image-rendering:auto;shape-rendering:auto;text-rendering:auto;enable-background:accumulate" />
      <path
         sodipodi:nodetypes="cscsscssssssccscssccsssss"
         inkscape:connector-curvature="0"
         id="rect4523-7"
         d="m -686.73826,625.9698 c -17.46482,-0.25454 -31.75929,13.83314 -31.75929,31.2998 0,17.46667 14.29447,31.55435 31.75929,31.29981 l 71.41015,0 c 20.25683,0 35.50391,15.25863 35.50391,35.32031 l 0,150.00196 c -8.16738,-2.52821 -16.82038,-3.89453 -25.76367,-3.89453 l -143.86719,0 c -48.41377,0 -88.36523,39.95341 -88.36523,88.36718 l 0,92.61527 c 0,48.4137 39.95146,88.3672 88.36523,88.3672 l 143.86719,0 c 48.41377,0 88.36719,-39.9535 88.36719,-88.3672 l -0.004,-327.08988 c 0,-53.75232 -44.34184,-97.91992 -98.10352,-97.91992 z m -62.7168,306.62891 143.86719,0 c 14.75846,0 25.67879,10.86539 25.76367,25.59375 -0.002,30.66582 0.004,64.92424 0.004,92.78714 0,14.8161 -10.95141,25.7675 -25.76758,25.7675 l -143.86728,0 c -14.81618,0 -25.76562,-10.9514 -25.76562,-25.7675 l 0,-92.61527 c 0,-14.81618 10.94944,-25.76562 25.76562,-25.76562 z"
         style="color:#000000;font-style:normal;font-variant:normal;font-weight:normal;font-stretch:normal;font-size:medium;line-height:normal;font-family:sans-serif;text-indent:0;text-align:start;text-decoration:none;text-decoration-line:none;text-decoration-style:solid;text-decoration-color:#000000;letter-spacing:normal;word-spacing:normal;text-transform:none;direction:ltr;writing-mode:lr-tb;baseline-shift:baseline;text-anchor:start;white-space:normal;clip-rule:nonzero;display:inline;overflow:visible;visibility:visible;opacity:1;isolation:auto;mix-blend-mode:normal;color-interpolation:sRGB;color-interpolation-filters:linearRGB;solid-color:#000000;solid-opacity:1;fill:#555753;fill-opacity:1;fill-rule:nonzero;stroke:none;stroke-width:62.59999847;stroke-linecap:round;stroke-linejoin:round;stroke-miterlimit:4;stroke-dasharray:none;stroke-dashoffset:0;stroke-opacity:1;color-rendering:auto;image-rendering:auto;shape-rendering:auto;text-rendering:auto;enable-background:accumulate" />
      <path
         sodipodi:nodetypes="sccsssssscsscscsssssssccs"
         inkscape:connector-curvature="0"
         id="rect4523-3"
         d="m -1097.1758,643.49324 c -53.7615,0 -98.1035,44.1655 -98.1035,97.91797 l -0.7187,309.56839 c 0,48.4137 39.9534,88.3672 88.3672,88.3672 l 143.86715,0 c 48.41377,0 88.36718,-39.9535 88.36718,-88.3672 l 0,-92.61527 c 0,-48.41377 -39.95341,-88.36718 -88.36718,-88.36718 l -143.86715,0 c -8.6834,0 -17.0916,1.29089 -25.0489,3.67968 l 0,-132.26562 c 0,-20.06174 15.2474,-35.31836 35.5039,-35.31836 l 71.4102,0 c 17.4648,0.25454 31.75928,-13.83314 31.75928,-31.2998 0,-17.46667 -14.29448,-31.55435 -31.75928,-31.29981 z m -10.455,289.10547 143.86715,0 c 14.81617,0 25.76562,10.94944 25.76562,25.76562 l 0,92.61527 c 0,14.8161 -10.94945,25.7675 -25.76562,25.7675 l -143.86715,0 c -14.8162,0 -25.7676,-10.9514 -25.7676,-25.7675 l 0.7187,-98.98831 c 2.6547,-11.47606 12.4526,-19.39258 25.0489,-19.39258 z"
         style="color:#000000;font-style:normal;font-variant:normal;font-weight:normal;font-stretch:normal;font-size:medium;line-height:normal;font-family:sans-serif;text-indent:0;text-align:start;text-decoration:none;text-decoration-line:none;text-decoration-style:solid;text-decoration-color:#000000;letter-spacing:normal;word-spacing:normal;text-transform:none;direction:ltr;writing-mode:lr-tb;baseline-shift:baseline;text-anchor:start;white-space:normal;clip-rule:nonzero;display:inline;overflow:visible;visibility:visible;opacity:1;isolation:auto;mix-blend-mode:normal;color-interpolation:sRGB;color-interpolation-filters:linearRGB;solid-color:#000000;solid-opacity:1;fill:#555753;fill-opacity:1;fill-rule:nonzero;stroke:none;stroke-width:62.59999847;stroke-linecap:round;stroke-linejoin:round;stroke-miterlimit:4;stroke-dasharray:none;stroke-dashoffset:0;stroke-opacity:1;color-rendering:auto;image-rendering:auto;shape-rendering:auto;text-rendering:auto;enable-background:accumulate" />
    </g>
  </g>
</svg>
